<?xml version="1.0" encoding="UTF-8"?>
<!DOCTYPE svg PUBLIC "-//W3C//DTD SVG 1.1//EN" "http://www.w3.org/Graphics/SVG/1.1/DTD/svg11.dtd">
<!-- Creator: CorelDRAW 2020 (64-Bit) -->
<svg xmlns="http://www.w3.org/2000/svg" xml:space="preserve" width="2.44107in" height="2.11888in" version="1.1" style="shape-rendering:geometricPrecision; text-rendering:geometricPrecision; image-rendering:optimizeQuality; fill-rule:evenodd; clip-rule:evenodd"
viewBox="0 0 394.13 342.11"
 xmlns:xlink="http://www.w3.org/1999/xlink"
 xmlns:xodm="http://www.corel.com/coreldraw/odm/2003">
 <defs>
  <style type="text/css">
   <![CDATA[
    .fil0 {fill:#00CCFF}
   ]]>
  </style>
 </defs>
 <g id="Layer_x0020_1">
  <metadata id="CorelCorpID_0Corel-Layer"/>
  <g id="_2529338492160">
   <path class="fil0" d="M75.38 202.39c9.94,-13.3 43.86,-13.16 53.12,-27.6 9.98,-15.57 15.44,-39.6 24.85,-55.96 6.28,-10.91 15.37,-15.37 17.2,-22.78 3.46,-14.02 -2.19,-20.84 10.16,-30.58 21.3,-16.8 38.37,4.94 55.15,12.31 -11.99,10.49 -15.85,7.5 -12.14,29.66 9.94,59.31 -30.28,69.2 -53.97,83.73 23.47,33.81 45.75,23.23 98.54,26.76 34.81,2.33 81.32,12.16 113.51,11.25 -20.44,-35.35 -63.24,-85.34 -89.12,-120.73 -17.77,-24.3 -68.13,-108.2 -100.7,-108.46 -36.22,-0.3 -84.16,82.65 -102.7,108.66 -25.68,36.03 -68.43,84.61 -88.62,120.62l167.53 -13.68c-8.85,-7.88 -30.76,-32.16 -45.86,-26.95 -16.21,5.6 -31.09,28.6 -46.96,13.75z"/>
   <path class="fil0" d="M237.82 293.09c11.5,-0.97 17.72,-1.07 25.76,3.37 6.56,21.39 -7.5,22.42 -26.25,20.13l0.48 -23.51zm-0.42 -27.35c35.98,-3.51 30.95,20.77 10.65,20.72l-2.26 0.16 -8.4 -0.99 0.01 -19.9zm26.5 24.09c23.13,-33.21 -14.13,-30.81 -40.81,-30.85 1.31,7.93 -4.58,4.73 7.57,5.64l0.01 52.67c-10.99,0.85 -6.76,-2.74 -7.59,5.66 11.65,-0.03 34.77,2.58 43.02,-3.79 10.87,-8.39 8.18,-23.12 -2.19,-29.34z"/>
   <path class="fil0" d="M180.11 314.62c-11.32,-18.91 -0.43,-41.96 16.82,-29.87 6.86,4.81 13.61,37.91 -16.82,29.87zm36 -37.69c-11.57,0.07 -10.59,2.68 -15.06,2.55 -3.7,-0.11 -5.52,-3.26 -13.5,-3.31 -32.05,-0.22 -24.27,65.1 14.94,41.02 -0.14,11.54 -1.51,16.78 -11.47,18.53 -14.53,2.55 -13.39,-8.26 -18.98,3.37 43.5,13.25 37.29,-19.34 37.35,-51.47l6.71 -10.67z"/>
   <path class="fil0" d="M380.09 310.59c-20.96,16.88 -32.65,-1.43 -25.4,-19.46 5.67,-14.12 30.8,-15.26 25.4,19.46zm7.88 -51.16l-14.22 -0.45c1.21,8.17 -3.97,4.78 7.75,5.66l-0.2 16.65c-22.59,-11.24 -41.52,0.86 -34,28.08 2.48,8.96 9.51,16.25 21.62,14.34 9.19,-1.46 4.96,-4.47 12.35,-3.35 3.17,0.48 3.13,2.49 12.85,2.6 -0.6,-5.39 -1.4,-2.88 -2.9,-5.83 -6.54,-12.82 -2.46,-42.06 -3.26,-57.7z"/>
   <path class="fil0" d="M21.56 324.05c11.74,-0.01 20.27,-6.5 19.99,-18.41 -0.51,-21.76 -49.61,-22.13 -29.15,-38.32 4.73,-3.75 11.38,-4.15 16.58,-0.91 12.03,7.5 -4.98,5.48 11.09,8.86 -0.39,-9.47 -1.8,-14.01 -10.16,-16.29 -28.68,-7.81 -36.29,20.23 -19.16,30.43 7.96,4.74 28.6,6.71 22.85,21.34 -2.79,7.1 -11.47,8.46 -18.46,6.4 -11.89,-3.49 -3.68,-6.06 -11.52,-12.17 -1.62,1.95 -5.21,-4.6 -2.84,9.34 1.5,8.81 12.98,9.74 20.78,9.73z"/>
   <path class="fil0" d="M117.73 277.14l-10.84 -0.22c0.78,5.33 0.63,2.97 4.95,7.83 7.75,8.71 -2.77,-7.45 2.21,2.85l0.01 29.69c-9.58,0.8 -6.11,-2.73 -6.75,5.66 7.24,0 15.88,1.1 21.14,-1.71 -2.32,-5.92 0.53,0.33 -7.65,-6.73 0,-14.12 -0.1,-32.74 17.32,-31.82 15.34,0.82 9.1,28.64 10.01,40.25l13.97 -1.71c-2.28,-5.79 -2.97,-2.69 -7.66,-6.73 0.02,-16.37 1.43,-23.64 -4.2,-36.3 -14.99,-3.78 -19.98,-2.94 -28.46,6.45 -2.61,-6.49 0.01,-2.69 -4.04,-7.52z"/>
   <path class="fil0" d="M58.08 305.55c-2.76,-11.52 2.65,-20.33 10.95,-22.46 10.9,-2.8 19.78,3.19 22.01,11.63 6.41,24.25 -27.95,31.79 -32.96,10.84zm-6.76 2.24c7.7,25.86 56.34,18.88 46.41,-15.32 -7.56,-26.04 -56.47,-18.44 -46.41,15.32z"/>
   <path class="fil0" d="M325.83 284.92c-4.7,-9.08 -2.54,-7.89 -15.3,-7.99 3.07,18.5 7.06,-17.14 7.02,40.36 -9.05,0.87 -5.57,-2.58 -6.15,5.64l19.5 0.01c-0.69,-8.23 3.2,-4.78 -6.59,-5.65 -0,-8.35 -0.51,-17.72 2.58,-24.77 3.17,-7.25 0.96,-3.78 6.24,-7.25 10.64,-7 4.6,0.73 7.73,-6.64 -7.44,-3.08 -9.96,-0.58 -15.03,6.29z"/>
   <path class="fil0" d="M296.02 277.37l-14.21 -0.42c1.2,8.15 -3.96,4.77 7.7,5.64 -0.01,65.52 -5.69,17.17 -7.27,40.35l21.31 -0.02c-0.58,-8.43 2.89,-4.85 -7.24,-5.63l-0.29 -39.92z"/>
   <path class="fil0" d="M151.9 192.71c5.53,9.37 12.52,10.57 20.32,22.27l14.89 -0.09c-15.37,-12.37 -19.28,-23.11 -35.21,-22.18z"/>
   <path class="fil0" d="M203.19 70.05c-2.94,25.78 24.92,-1.8 0,0z"/>
   <polygon class="fil0" points="296.93,266.88 296.41,259.25 289.08,259.46 290.67,267.32 "/>
  </g>
 </g>
</svg>
